<svg xmlns="http://www.w3.org/2000/svg" xmlns:xlink="http://www.w3.org/1999/xlink" contentStyleType="text/css" data-diagram-type="SEQUENCE" height="685px" preserveAspectRatio="none" style="width:1542px;height:685px;background:#FFFFFF;" version="1.1" viewBox="0 0 1542 685" width="1542px" zoomAndPan="magnify"><title>Django Healthcare Management API - Request to CRUD Flow</title><defs/><g><text fill="#000000" font-family="sans-serif" font-size="14" font-weight="bold" lengthAdjust="spacing" textLength="477.9482" x="531.1689" y="27.9951">Django Healthcare Management API - Request to CRUD Flow</text><g><title>Client</title><rect fill="transparent" height="486.125" width="8" x="24.2651" y="118.5938"/><line style="stroke:#181818;stroke-width:0.5;stroke-dasharray:5.0,5.0;" x1="28" x2="28" y1="118.5938" y2="604.7188"/></g><g><title>URLConf</title><rect fill="transparent" height="486.125" width="8" x="248.9019" y="118.5938"/><line style="stroke:#181818;stroke-width:0.5;stroke-dasharray:5.0,5.0;" x1="251.9434" x2="251.9434" y1="118.5938" y2="604.7188"/></g><g><title>ViewLayer</title><rect fill="transparent" height="486.125" width="8" x="442.0859" y="118.5938"/><line style="stroke:#181818;stroke-width:0.5;stroke-dasharray:5.0,5.0;" x1="445.8042" x2="445.8042" y1="118.5938" y2="604.7188"/></g><g><title>Serializer</title><rect fill="transparent" height="486.125" width="8" x="611.5996" y="118.5938"/><line style="stroke:#181818;stroke-width:0.5;stroke-dasharray:5.0,5.0;" x1="614.9888" x2="614.9888" y1="118.5938" y2="604.7188"/></g><g><title>Repository</title><rect fill="transparent" height="486.125" width="8" x="768.4561" y="118.5938"/><line style="stroke:#181818;stroke-width:0.5;stroke-dasharray:5.0,5.0;" x1="771.9199" x2="771.9199" y1="118.5938" y2="604.7188"/></g><g><title>Model</title><rect fill="transparent" height="486.125" width="8" x="926.0425" y="118.5938"/><line style="stroke:#181818;stroke-width:0.5;stroke-dasharray:5.0,5.0;" x1="930.0254" x2="930.0254" y1="118.5938" y2="604.7188"/></g><g><title>Database</title><rect fill="transparent" height="486.125" width="8" x="1036.123" y="118.5938"/><line style="stroke:#181818;stroke-width:0.5;stroke-dasharray:5.0,5.0;" x1="1039.7227" x2="1039.7227" y1="118.5938" y2="604.7188"/></g><g><title>JWT Token Endpoint</title><rect fill="transparent" height="486.125" width="8" x="1163.7456" y="118.5938"/><line style="stroke:#181818;stroke-width:0.5;stroke-dasharray:5.0,5.0;" x1="1167.5234" x2="1167.5234" y1="118.5938" y2="604.7188"/></g><g><title>AuthMiddleware</title><rect fill="transparent" height="486.125" width="8" x="1314.6958" y="118.5938"/><line style="stroke:#181818;stroke-width:0.5;stroke-dasharray:5.0,5.0;" x1="1317.9678" x2="1317.9678" y1="118.5938" y2="604.7188"/></g><g><title>ProtectedEndpoint</title><rect fill="transparent" height="486.125" width="8" x="1460.355" y="118.5938"/><line style="stroke:#181818;stroke-width:0.5;stroke-dasharray:5.0,5.0;" x1="1463.4238" x2="1463.4238" y1="118.5938" y2="604.7188"/></g><text fill="#000000" font-family="sans-serif" font-size="14" lengthAdjust="spacing" textLength="40.5303" x="5" y="115.292">Client</text><ellipse cx="28.2651" cy="50.7969" fill="#E2E2F0" rx="8" ry="8" style="stroke:#181818;stroke-width:0.5;"/><path d="M28.2651,58.7969 L28.2651,85.7969 M15.2651,66.7969 L41.2651,66.7969 M28.2651,85.7969 L15.2651,100.7969 M28.2651,85.7969 L41.2651,100.7969 " fill="transparent" style="stroke:#181818;stroke-width:0.5;"/><text fill="#000000" font-family="sans-serif" font-size="14" lengthAdjust="spacing" textLength="40.5303" x="5" y="616.7139">Client</text><ellipse cx="28.2651" cy="628.5156" fill="#E2E2F0" rx="8" ry="8" style="stroke:#181818;stroke-width:0.5;"/><path d="M28.2651,636.5156 L28.2651,663.5156 M15.2651,644.5156 L41.2651,644.5156 M28.2651,663.5156 L15.2651,678.5156 M28.2651,663.5156 L41.2651,678.5156 " fill="transparent" style="stroke:#181818;stroke-width:0.5;"/><rect fill="#E2E2F0" height="30.2969" rx="2.5" ry="2.5" style="stroke:#181818;stroke-width:0.5;" width="73.917" x="215.9434" y="87.2969"/><text fill="#000000" font-family="sans-serif" font-size="14" lengthAdjust="spacing" textLength="59.917" x="222.9434" y="107.292">URLConf</text><rect fill="#E2E2F0" height="30.2969" rx="2.5" ry="2.5" style="stroke:#181818;stroke-width:0.5;" width="73.917" x="215.9434" y="603.7188"/><text fill="#000000" font-family="sans-serif" font-size="14" lengthAdjust="spacing" textLength="59.917" x="222.9434" y="623.7139">URLConf</text><rect fill="#E2E2F0" height="30.2969" rx="2.5" ry="2.5" style="stroke:#181818;stroke-width:0.5;" width="86.5635" x="402.8042" y="87.2969"/><text fill="#000000" font-family="sans-serif" font-size="14" lengthAdjust="spacing" textLength="72.5635" x="409.8042" y="107.292">ViewLayer</text><rect fill="#E2E2F0" height="30.2969" rx="2.5" ry="2.5" style="stroke:#181818;stroke-width:0.5;" width="86.5635" x="402.8042" y="603.7188"/><text fill="#000000" font-family="sans-serif" font-size="14" lengthAdjust="spacing" textLength="72.5635" x="409.8042" y="623.7139">ViewLayer</text><rect fill="#E2E2F0" height="30.2969" rx="2.5" ry="2.5" style="stroke:#181818;stroke-width:0.5;" width="79.2217" x="575.9888" y="87.2969"/><text fill="#000000" font-family="sans-serif" font-size="14" lengthAdjust="spacing" textLength="65.2217" x="582.9888" y="107.292">Serializer</text><rect fill="#E2E2F0" height="30.2969" rx="2.5" ry="2.5" style="stroke:#181818;stroke-width:0.5;" width="79.2217" x="575.9888" y="603.7188"/><text fill="#000000" font-family="sans-serif" font-size="14" lengthAdjust="spacing" textLength="65.2217" x="582.9888" y="623.7139">Serializer</text><rect fill="#E2E2F0" height="30.2969" rx="2.5" ry="2.5" style="stroke:#181818;stroke-width:0.5;" width="89.0723" x="727.9199" y="87.2969"/><text fill="#000000" font-family="sans-serif" font-size="14" lengthAdjust="spacing" textLength="75.0723" x="734.9199" y="107.292">Repository</text><rect fill="#E2E2F0" height="30.2969" rx="2.5" ry="2.5" style="stroke:#181818;stroke-width:0.5;" width="89.0723" x="727.9199" y="603.7188"/><text fill="#000000" font-family="sans-serif" font-size="14" lengthAdjust="spacing" textLength="75.0723" x="734.9199" y="623.7139">Repository</text><rect fill="#E2E2F0" height="30.2969" rx="2.5" ry="2.5" style="stroke:#181818;stroke-width:0.5;" width="56.0342" x="902.0254" y="87.2969"/><text fill="#000000" font-family="sans-serif" font-size="14" lengthAdjust="spacing" textLength="42.0342" x="909.0254" y="107.292">Model</text><rect fill="#E2E2F0" height="30.2969" rx="2.5" ry="2.5" style="stroke:#181818;stroke-width:0.5;" width="56.0342" x="902.0254" y="603.7188"/><text fill="#000000" font-family="sans-serif" font-size="14" lengthAdjust="spacing" textLength="42.0342" x="909.0254" y="623.7139">Model</text><rect fill="#E2E2F0" height="30.2969" rx="2.5" ry="2.5" style="stroke:#181818;stroke-width:0.5;" width="80.8008" x="999.7227" y="87.2969"/><text fill="#000000" font-family="sans-serif" font-size="14" lengthAdjust="spacing" textLength="66.8008" x="1006.7227" y="107.292">Database</text><rect fill="#E2E2F0" height="30.2969" rx="2.5" ry="2.5" style="stroke:#181818;stroke-width:0.5;" width="80.8008" x="999.7227" y="603.7188"/><text fill="#000000" font-family="sans-serif" font-size="14" lengthAdjust="spacing" textLength="66.8008" x="1006.7227" y="623.7139">Database</text><rect fill="#E2E2F0" height="30.2969" rx="2.5" ry="2.5" style="stroke:#181818;stroke-width:0.5;" width="154.4443" x="1090.5234" y="87.2969"/><text fill="#000000" font-family="sans-serif" font-size="14" lengthAdjust="spacing" textLength="140.4443" x="1097.5234" y="107.292">JWT Token Endpoint</text><rect fill="#E2E2F0" height="30.2969" rx="2.5" ry="2.5" style="stroke:#181818;stroke-width:0.5;" width="154.4443" x="1090.5234" y="603.7188"/><text fill="#000000" font-family="sans-serif" font-size="14" lengthAdjust="spacing" textLength="140.4443" x="1097.5234" y="623.7139">JWT Token Endpoint</text><rect fill="#E2E2F0" height="30.2969" rx="2.5" ry="2.5" style="stroke:#181818;stroke-width:0.5;" width="127.4561" x="1254.9678" y="87.2969"/><text fill="#000000" font-family="sans-serif" font-size="14" lengthAdjust="spacing" textLength="113.4561" x="1261.9678" y="107.292">AuthMiddleware</text><rect fill="#E2E2F0" height="30.2969" rx="2.5" ry="2.5" style="stroke:#181818;stroke-width:0.5;" width="127.4561" x="1254.9678" y="603.7188"/><text fill="#000000" font-family="sans-serif" font-size="14" lengthAdjust="spacing" textLength="113.4561" x="1261.9678" y="623.7139">AuthMiddleware</text><rect fill="#E2E2F0" height="30.2969" rx="2.5" ry="2.5" style="stroke:#181818;stroke-width:0.5;" width="143.8623" x="1392.4238" y="87.2969"/><text fill="#000000" font-family="sans-serif" font-size="14" lengthAdjust="spacing" textLength="129.8623" x="1399.4238" y="107.292">ProtectedEndpoint</text><rect fill="#E2E2F0" height="30.2969" rx="2.5" ry="2.5" style="stroke:#181818;stroke-width:0.5;" width="143.8623" x="1392.4238" y="603.7188"/><text fill="#000000" font-family="sans-serif" font-size="14" lengthAdjust="spacing" textLength="129.8623" x="1399.4238" y="623.7139">ProtectedEndpoint</text><polygon fill="#181818" points="240.9019,145.7266,250.9019,149.7266,240.9019,153.7266,244.9019,149.7266" style="stroke:#181818;stroke-width:1;"/><line style="stroke:#181818;stroke-width:1;" x1="28.2651" x2="246.9019" y1="149.7266" y2="149.7266"/><text fill="#000000" font-family="sans-serif" font-size="13" lengthAdjust="spacing" textLength="200.6367" x="35.2651" y="144.6606">Request (e.g., POST /patients/)</text><polygon fill="#181818" points="434.0859,174.8594,444.0859,178.8594,434.0859,182.8594,438.0859,178.8594" style="stroke:#181818;stroke-width:1;"/><line style="stroke:#181818;stroke-width:1;" x1="252.9019" x2="440.0859" y1="178.8594" y2="178.8594"/><text fill="#000000" font-family="sans-serif" font-size="13" lengthAdjust="spacing" textLength="169.1841" x="259.9019" y="173.7935">Route to patient_views.py</text><polygon fill="#181818" points="603.5996,203.9922,613.5996,207.9922,603.5996,211.9922,607.5996,207.9922" style="stroke:#181818;stroke-width:1;"/><line style="stroke:#181818;stroke-width:1;" x1="446.0859" x2="609.5996" y1="207.9922" y2="207.9922"/><text fill="#000000" font-family="sans-serif" font-size="13" lengthAdjust="spacing" textLength="145.5137" x="453.0859" y="202.9263">Validate &amp; Parse Input</text><polygon fill="#181818" points="760.4561,233.125,770.4561,237.125,760.4561,241.125,764.4561,237.125" style="stroke:#181818;stroke-width:1;"/><line style="stroke:#181818;stroke-width:1;" x1="615.5996" x2="766.4561" y1="237.125" y2="237.125"/><text fill="#000000" font-family="sans-serif" font-size="13" lengthAdjust="spacing" textLength="132.8564" x="622.5996" y="232.0591">Call create_patient()</text><polygon fill="#181818" points="918.0425,262.2578,928.0425,266.2578,918.0425,270.2578,922.0425,266.2578" style="stroke:#181818;stroke-width:1;"/><line style="stroke:#181818;stroke-width:1;" x1="772.4561" x2="924.0425" y1="266.2578" y2="266.2578"/><text fill="#000000" font-family="sans-serif" font-size="13" lengthAdjust="spacing" textLength="106.082" x="779.4561" y="261.1919">ORM Operations</text><polygon fill="#181818" points="1028.123,291.3906,1038.123,295.3906,1028.123,299.3906,1032.123,295.3906" style="stroke:#181818;stroke-width:1;"/><line style="stroke:#181818;stroke-width:1;" x1="930.0425" x2="1034.123" y1="295.3906" y2="295.3906"/><text fill="#000000" font-family="sans-serif" font-size="13" lengthAdjust="spacing" textLength="72.1538" x="937.0425" y="290.3247">Save to DB</text><polygon fill="#181818" points="941.0425,320.5234,931.0425,324.5234,941.0425,328.5234,937.0425,324.5234" style="stroke:#181818;stroke-width:1;"/><line style="stroke:#181818;stroke-width:1;" x1="935.0425" x2="1039.123" y1="324.5234" y2="324.5234"/><text fill="#000000" font-family="sans-serif" font-size="13" lengthAdjust="spacing" textLength="86.0806" x="947.0425" y="319.4575">DB Response</text><polygon fill="#181818" points="783.4561,349.6563,773.4561,353.6563,783.4561,357.6563,779.4561,353.6563" style="stroke:#181818;stroke-width:1;"/><line style="stroke:#181818;stroke-width:1;" x1="777.4561" x2="929.0425" y1="353.6563" y2="353.6563"/><text fill="#000000" font-family="sans-serif" font-size="13" lengthAdjust="spacing" textLength="133.5864" x="789.4561" y="348.5903">Return Model Object</text><polygon fill="#181818" points="626.5996,378.7891,616.5996,382.7891,626.5996,386.7891,622.5996,382.7891" style="stroke:#181818;stroke-width:1;"/><line style="stroke:#181818;stroke-width:1;" x1="620.5996" x2="771.4561" y1="382.7891" y2="382.7891"/><text fill="#000000" font-family="sans-serif" font-size="13" lengthAdjust="spacing" textLength="90.3906" x="632.5996" y="377.7231">Serialize Data</text><polygon fill="#181818" points="457.0859,407.9219,447.0859,411.9219,457.0859,415.9219,453.0859,411.9219" style="stroke:#181818;stroke-width:1;"/><line style="stroke:#181818;stroke-width:1;" x1="451.0859" x2="614.5996" y1="411.9219" y2="411.9219"/><text fill="#000000" font-family="sans-serif" font-size="13" lengthAdjust="spacing" textLength="80.1265" x="463.0859" y="406.856">Return JSON</text><polygon fill="#181818" points="39.2651,437.0547,29.2651,441.0547,39.2651,445.0547,35.2651,441.0547" style="stroke:#181818;stroke-width:1;"/><line style="stroke:#181818;stroke-width:1;" x1="33.2651" x2="445.0859" y1="441.0547" y2="441.0547"/><text fill="#000000" font-family="sans-serif" font-size="13" lengthAdjust="spacing" textLength="63.0195" x="45.2651" y="435.9888">Response</text><polygon fill="#181818" points="1155.7456,466.1875,1165.7456,470.1875,1155.7456,474.1875,1159.7456,470.1875" style="stroke:#181818;stroke-width:1;"/><line style="stroke:#181818;stroke-width:1;" x1="28.2651" x2="1161.7456" y1="470.1875" y2="470.1875"/><text fill="#000000" font-family="sans-serif" font-size="13" lengthAdjust="spacing" textLength="69.7861" x="35.2651" y="465.1216">/api/token/</text><polygon fill="#181818" points="1306.6958,495.3203,1316.6958,499.3203,1306.6958,503.3203,1310.6958,499.3203" style="stroke:#181818;stroke-width:1;"/><line style="stroke:#181818;stroke-width:1;" x1="1167.7456" x2="1312.6958" y1="499.3203" y2="499.3203"/><text fill="#000000" font-family="sans-serif" font-size="13" lengthAdjust="spacing" textLength="77.4097" x="1174.7456" y="494.2544">Issue Token</text><polygon fill="#181818" points="1452.355,524.4531,1462.355,528.4531,1452.355,532.4531,1456.355,528.4531" style="stroke:#181818;stroke-width:1;"/><line style="stroke:#181818;stroke-width:1;" x1="28.2651" x2="1458.355" y1="528.4531" y2="528.4531"/><text fill="#000000" font-family="sans-serif" font-size="13" lengthAdjust="spacing" textLength="120.2373" x="35.2651" y="523.3872">Access with Token</text><polygon fill="#181818" points="1329.6958,553.5859,1319.6958,557.5859,1329.6958,561.5859,1325.6958,557.5859" style="stroke:#181818;stroke-width:1;"/><line style="stroke:#181818;stroke-width:1;" x1="1323.6958" x2="1463.355" y1="557.5859" y2="557.5859"/><text fill="#000000" font-family="sans-serif" font-size="13" lengthAdjust="spacing" textLength="82.1577" x="1335.6958" y="552.52">Validate JWT</text><polygon fill="#181818" points="1452.355,582.7188,1462.355,586.7188,1452.355,590.7188,1456.355,586.7188" style="stroke:#181818;stroke-width:1;"/><line style="stroke:#181818;stroke-width:1;" x1="1318.6958" x2="1458.355" y1="586.7188" y2="586.7188"/><text fill="#000000" font-family="sans-serif" font-size="13" lengthAdjust="spacing" textLength="85.5854" x="1325.6958" y="581.6528">Grant Access</text><!--SRC=[TP99JyCm48Nl_XKZ3YmIDFSUa4h3qgebLRfmH4Coj0PZ1tj2LNuzapHTWLESyVlclR7DcWr1_8Psxk21qF0YGqymH8jp-Y3Bq1dru0fI-YmfCB23RZgDuSwufLAOiVFGDLg4Igs_S7KDqtJGTVOLsblkd5hprYMCal44eWAvKeReGcsK0iqqBGUu8bzXhcIgp1hfyvTiXbQnKZkL86Fo6et-hfcPh78Kx1H6w0D1pnObgpsD42aLBcX9lHAYYyP0vacWvyRe_4BjIGGOkfoCQ9Dq24b1NcJE1hKkotwCZ2yeRcqOurUTERvHQblUQn7VY7qe1ASTVn0e9IwzRO3avOqoFefpCF7sfqvnDEd1SQxxziV9u-41DbVMtWLJPz0fUI5LdTMpmcjrrRkxFUa_JM3Ytid2hSqBfosVI8C82nrnLOxKdn91gyP3dUU6bjKZQqClX9BMoZs7aNSiarE-WKNPoJ8A0PQQ5ut-j-elX-sZa4ZgQFSVgtkFrREl3Ny0]--></g></svg>